Coordinates
version=1
nRows=13
nColumns=38
inDegrees=no

Units are S.I. units (second, meters, Newtons, ...)
If the header above contains a line with 'inDegrees', this indicates whether rotational values are in degrees (yes) or radians (no).

endheader
time	pelvis_tilt	pelvis_list	pelvis_rotation	pelvis_tx	pelvis_ty	pelvis_tz	hip_flexion_r	hip_adduction_r	hip_rotation_r	knee_angle_r	ankle_angle_r	subtalar_angle_r	mtp_angle_r	hip_flexion_l	hip_adduction_l	hip_rotation_l	knee_angle_l	ankle_angle_l	subtalar_angle_l	mtp_angle_l	lumbar_extension	lumbar_bending	lumbar_rotation	arm_flex_r	arm_add_r	arm_rot_r	elbow_flex_r	pro_sup_r	wrist_flex_r	wrist_dev_r	arm_flex_l	arm_add_l	arm_rot_l	elbow_flex_l	pro_sup_l	wrist_flex_l	wrist_dev_l
0.45	-2.8019	1.48356	-2.03061	0.7358	1.07401	1.01883	-0.256766	-0.0450218	-0.0525998	0.564607	-0.0545277	0	0	0.259863	0.0332603	-0.237128	0.402846	-0.270005	0	0	-0.384185	-0.0763415	0.054228	0.0369667	-0.32275	0.767527	0.426287	1.07997	0	0	-0.2012	-0.302403	0.274697	0.596193	1.12645	0	0
0.46	-2.74396	1.48333	-2.08242	0.734127	1.08699	1.01886	-0.253053	-0.0503354	-0.0399829	0.593674	-0.0896351	0	0	0.267568	0.0362747	-0.234073	0.443609	-0.263695	0	0	-0.37602	-0.0795394	0.0511425	0.0308629	-0.316549	0.764107	0.415344	1.08152	0	0	-0.204298	-0.300754	0.270873	0.591817	1.13544	0	0
0.47	-2.70598	1.48037	-2.1142	0.732325	1.09991	1.01926	-0.250003	-0.0556073	-0.028356	0.625422	-0.114365	0	0	0.266738	0.0420842	-0.22205	0.470243	-0.261329	0	0	-0.372121	-0.0819878	0.0499321	0.0224137	-0.314681	0.75862	0.412518	1.07993	0	0	-0.204263	-0.304011	0.286252	0.589679	1.12674	0	0
0.48	-2.68172	1.47745	-2.13242	0.730538	1.11286	1.0198	-0.244548	-0.0592426	-0.0135631	0.660242	-0.141316	0	0	0.261732	0.0483189	-0.207168	0.488715	-0.259133	0	0	-0.368678	-0.083411	0.0494458	0.0134281	-0.313186	0.751497	0.410799	1.07639	0	0	-0.203956	-0.307952	0.304463	0.587587	1.11624	0	0
0.49	-2.66764	1.47373	-2.14095	0.728788	1.12571	1.02057	-0.237347	-0.0621396	0.00368166	0.69751	-0.164651	0	0	0.252083	0.0542496	-0.195602	0.499237	-0.257767	0	0	-0.366983	-0.0847202	0.0498395	0.00420056	-0.312856	0.74331	0.411477	1.07169	0	0	-0.202835	-0.312988	0.325931	0.586362	1.10331	0	0
0.5	-2.64848	1.471	-2.15537	0.727121	1.13846	1.02138	-0.225559	-0.0650716	0.0218555	0.738214	-0.191507	0	0	0.241221	0.0592352	-0.191364	0.504111	-0.256134	0	0	-0.362936	-0.0866692	0.0469399	0.000671431	-0.309724	0.747994	0.403682	1.0745	0	0	-0.208327	-0.309533	0.309654	0.585001	1.12076	0	0
0.51	-2.60738	1.47172	-2.19303	0.725558	1.15101	1.02188	-0.204943	-0.0684411	0.0396739	0.784337	-0.260666	0	0	0.234688	0.063061	-0.195463	0.509576	-0.251153	0	0	-0.354121	-0.0891926	0.0450819	-0.00105521	-0.305737	0.759494	0.392337	1.07234	0	0	-0.213576	-0.306614	0.295791	0.582413	1.13939	0	0
0.52	-2.5727	1.4712	-2.22535	0.724113	1.16314	1.02231	-0.18379	-0.0710473	0.0557405	0.83106	-0.294344	0	0	0.226674	0.0665999	-0.205447	0.51551	-0.246513	0	0	-0.348631	-0.0920881	0.0457849	-0.00726403	-0.305656	0.756398	0.392769	1.07265	0	0	-0.215478	-0.311836	0.308911	0.585574	1.12821	0	0
0.53	-2.54173	1.47007	-2.25481	0.722752	1.17486	1.02274	-0.160752	-0.073111	0.0702473	0.880641	-0.320845	0	0	0.218069	0.0700087	-0.219713	0.521985	-0.240826	0	0	-0.34504	-0.0953737	0.0464239	-0.0131831	-0.307053	0.752162	0.397004	1.07228	0	0	-0.217188	-0.317692	0.321944	0.59074	1.11477	0	0
0.54	-2.51662	1.46711	-2.27833	0.721429	1.18616	1.02334	-0.137335	-0.0753506	0.0823482	0.9324	-0.338672	0	0	0.206985	0.0746788	-0.234188	0.527052	-0.235304	0	0	-0.344871	-0.0994735	0.0460124	-0.0186117	-0.309429	0.745631	0.404697	1.06994	0	0	-0.217717	-0.324495	0.337663	0.596278	1.10201	0	0
0.55	-2.48754	1.46399	-2.30521	0.720153	1.19709	1.02397	-0.111015	-0.0777165	0.0924448	0.986146	-0.356204	0	0	0.195564	0.0801928	-0.246082	0.531338	-0.229549	0	0	-0.344173	-0.104262	0.0397979	-0.0178804	-0.309296	0.751788	0.405681	1.07292	0	0	-0.224176	-0.323957	0.321711	0.601366	1.11385	0	0
0.56	-2.46286	1.46137	-2.32675	0.718931	1.20768	1.02458	-0.0826485	-0.0787118	0.100981	1.03988	-0.375368	0	0	0.184499	0.0845725	-0.255679	0.535746	-0.222951	0	0	-0.34456	-0.108132	0.0329027	-0.017659	-0.310277	0.755384	0.410205	1.07355	0	0	-0.229309	-0.324156	0.308828	0.606803	1.12166	0	0
0.57	-2.44094	1.46004	-2.344	0.717749	1.21803	1.02509	-0.0530971	-0.0774496	0.107192	1.09138	-0.38569	0	0	0.17403	0.087907	-0.259089	0.537671	-0.214971	0	0	-0.344979	-0.110436	0.025678	-0.019352	-0.311308	0.750461	0.417495	1.07754	0	0	-0.231855	-0.32728	0.308774	0.611708	1.11902	0	0
